<svg width="24" height="24" viewBox="0 0 24 24" fill="none" xmlns="http://www.w3.org/2000/svg">
    <path fill-rule="evenodd" clip-rule="evenodd" d="M12 4C10.0478 4 8.24816 4.161 6.80371 4.35177C5.50372 4.52346 4.52346 5.50372 4.35177 6.80371C4.16101 8.24816 4 10.0478 4 12C4 13.9522 4.161 15.7518 4.35177 17.1963C4.52346 18.4963 5.50372 19.4765 6.80371 19.6482C8.24816 19.839 10.0478 20 12 20C13.9522 20 15.7518 19.839 17.1963 19.6482C18.4963 19.4765 19.4765 18.4963 19.6482 17.1963C19.839 15.7518 20 13.9522 20 12C20 10.0478 19.839 8.24816 19.6482 6.80371C19.4765 5.50372 18.4963 4.52346 17.1963 4.35177C15.7518 4.16101 13.9522 4 12 4ZM6.54184 2.36899C4.34504 2.65912 2.65912 4.34504 2.36899 6.54184C2.16953 8.05208 2 9.94127 2 12C2 14.0587 2.16953 15.9479 2.36899 17.4582C2.65912 19.655 4.34504 21.3409 6.54184 21.631C8.05208 21.8305 9.94127 22 12 22C14.0587 22 15.9479 21.8305 17.4582 21.631C19.655 21.3409 21.3409 19.655 21.631 17.4582C21.8305 15.9479 22 14.0587 22 12C22 9.94127 21.8305 8.05208 21.631 6.54184C21.3409 4.34504 19.655 2.65912 17.4582 2.36899C15.9479 2.16953 14.0587 2 12 2C9.94127 2 8.05208 2.16953 6.54184 2.36899Z" fill="currentColor"/>
    <path fill-rule="evenodd" clip-rule="evenodd" d="M14.2071 7.79289C14.5976 8.18342 14.5976 8.81658 14.2071 9.20711L11.4142 12L14.2071 14.7929C14.5976 15.1834 14.5976 15.8166 14.2071 16.2071C13.8166 16.5976 13.1834 16.5976 12.7929 16.2071L9.29289 12.7071C8.90237 12.3166 8.90237 11.6834 9.29289 11.2929L12.7929 7.79289C13.1834 7.40237 13.8166 7.40237 14.2071 7.79289Z" fill="currentColor"/>
</svg>
